<?xml version="1.0" encoding="UTF-8"?>
<svg version="1.1" xmlns="http://www.w3.org/2000/svg" width="676" height="369">
<path d="M0 0 C1.18207031 0.29132813 2.36414063 0.58265625 3.58203125 0.8828125 C9.93528482 2.57257837 15.51662904 4.34441936 21 8 C19.68572497 15.28825246 17.18437954 21.34084153 14 28 C12.97682714 30.32429426 11.98783054 32.66040135 11 35 C7.4364601 34.23207009 4.18950128 32.92217674 0.8125 31.5625 C-7.46979343 28.38547835 -14.28531634 26.84385592 -23.1875 26.75 C-23.86530518 26.74057373 -24.54311035 26.73114746 -25.24145508 26.72143555 C-29.51860268 26.74926037 -33.06517246 27.30426248 -37 29 C-37.33 29.66 -37.66 30.32 -38 31 C-38.66 31 -39.32 31 -40 31 C-40.26932521 35.65052872 -40.26932521 35.65052872 -39 40 C-31.39733398 43.5034229 -23.42687749 45.45193954 -15.25 47.0625 C-8.46764399 48.40267806 -2.25852215 49.97597071 4 53 C4.88300781 53.40347656 5.76601563 53.80695313 6.67578125 54.22265625 C11.11011913 56.32110558 14.80793473 58.16952167 18 62 C18.515625 62.474375 19.03125 62.94875 19.5625 63.4375 C24.93293175 69.27492581 26.50581307 77.28072357 27 85 C26.29777407 93.19263584 23.47208096 100.15930699 19 107 C18.34 107 17.68 107 17 107 C16.505 108.485 16.505 108.485 16 110 C15.34 110 14.68 110 14 110 C14 110.66 14 111.32 14 112 C-0.38805827 123.93408065 -20.00127542 125.59959286 -38 124 C-41.91813476 123.5293452 -45.80040751 122.92949512 -49.6875 122.25 C-50.58380127 122.09337891 -51.48010254 121.93675781 -52.40356445 121.77539062 C-58.36788209 120.60966047 -63.55233571 118.66383872 -69 116 C-70.47832693 115.31069618 -71.9573842 114.62295422 -73.4375 113.9375 C-76.46601061 112.51195864 -77.01892953 111.9716057 -79 109 C-78.34765625 106.79296875 -78.34765625 106.79296875 -77.0625 104.1875 C-76.59585938 103.22585937 -76.12921875 102.26421875 -75.6484375 101.2734375 C-75.10445312 100.19320312 -74.56046875 99.11296875 -74 98 C-73.3664887 96.72170024 -72.73370151 95.44304143 -72.1015625 94.1640625 C-70.41728805 90.76770618 -68.71315363 87.38187388 -67 84 C-63.60266395 84.97066744 -61.00306195 85.9979343 -58.05859375 87.984375 C-48.94799391 93.9882952 -37.4005777 94.37399326 -26.8125 94.4375 C-25.82064697 94.44749023 -24.82879395 94.45748047 -23.80688477 94.46777344 C-18.66220225 94.40607074 -15.24325538 94.20582621 -11 91 C-10.34 91 -9.68 91 -9 91 C-8.9434891 87.63147485 -8.9434891 87.63147485 -10 84 C-19.06238135 77.20321399 -31.84112732 75.3847535 -42.58203125 72.60546875 C-55.7400064 69.1364091 -65.52933685 64.15957231 -73.94140625 53.0546875 C-77.82051633 45.52549229 -77.03333973 33.43516682 -75.1875 25.375 C-74.08298395 22.23584911 -72.99693562 19.66258083 -71 17 C-70.34 17 -69.68 17 -69 17 C-68.896875 16.401875 -68.79375 15.80375 -68.6875 15.1875 C-66.8999848 9.49995162 -59.81435177 5.93541726 -55 3 C-39.22103243 -4.50845758 -16.71804301 -4.15036493 0 0 Z " fill="#3D280C" transform="translate(604,108)"/>
<path d="M0 0 C4.64473982 -0.07416067 9.28913499 -0.12860615 13.93432617 -0.16479492 C15.51446536 -0.17988094 17.09456269 -0.2003525 18.67456055 -0.22631836 C20.94590585 -0.26271126 23.21669759 -0.27972762 25.48828125 -0.29296875 C26.54780754 -0.31619453 26.54780754 -0.31619453 27.6287384 -0.33988953 C32.49250748 -0.34155821 32.49250748 -0.34155821 34.84130859 1.23925781 C36.17075244 3.25947463 37.13208815 5.22548638 38.05078125 7.46484375 C38.4166333 8.34164795 38.78248535 9.21845215 39.15942383 10.12182617 C39.53993896 11.05099854 39.9204541 11.9801709 40.3125 12.9375 C43.22977613 19.91869645 46.26719539 26.72050809 49.734375 33.4453125 C51.36169419 36.73008643 52.68869464 40.0940043 54.0078125 43.51171875 C55.44439091 47.11447642 57.08719443 50.61528822 58.7109375 54.13671875 C60.05852728 57.13000151 61.31709364 60.15038939 62.5625 63.1875 C64.24707205 67.28011235 66.07922847 71.22095324 68.10546875 75.15234375 C69.31229908 77.64505442 70.22146156 80.21343125 71.16015625 82.81640625 C72.50191562 86.3049806 74.10727972 89.66940181 75.671875 93.0625 C77.49541298 97.09573693 79.18519133 101.1795223 80.8671875 105.2734375 C81.79016141 107.49494022 82.75625278 109.68489691 83.75 111.875 C85 115 85 115 86 121 C74.12 121 62.24 121 50 121 C39.21195652 97.26630435 39.21195652 97.26630435 36.71484375 88.23828125 C35.78487404 85.32640888 34.45961021 82.74139487 32.96484375 80.08203125 C32 78 32 78 31.046875 74.66015625 C30.04134395 71.14454957 28.7889702 67.96627228 27.3125 64.625 C24.85058249 58.98386557 22.46059566 53.31962099 20.125 47.625 C19.81473877 46.86912598 19.50447754 46.11325195 19.18481445 45.33447266 C18.45569422 43.55666296 17.72771673 41.77838466 17 40 C14.86165469 42.13834531 14.260622 43.52238279 13.1875 46.3125 C12.84203125 47.20195312 12.4965625 48.09140625 12.140625 49.0078125 C11.57601562 50.48894531 11.57601562 50.48894531 11 52 C10.14621988 54.22931475 9.29204422 56.45847804 8.4375 58.6875 C8.04433594 59.72261719 7.65117187 60.75773437 7.24609375 61.82421875 C5.90216215 65.24934851 4.45425262 68.62034659 3 72 C-0.18097462 79.77006068 -3.23877839 87.56354724 -6.078125 95.46484375 C-9.25939188 104.21332766 -13.08783407 112.52364048 -17 121 C-28.88 121 -40.76 121 -53 121 C-52.14454519 116.72272594 -51.17648254 113.97038129 -49.3125 110.125 C-47.00202273 105.24425495 -44.89726297 100.34323831 -42.9375 95.3125 C-40.94242795 90.21247602 -38.73116622 85.31303694 -36.21484375 80.44921875 C-33.88262243 75.7472806 -31.97577235 70.85966367 -30 66 C-27.49650586 59.89680718 -24.9504231 53.90084619 -22 48 C-21.26112139 46.25407834 -20.53349476 44.50338261 -19.8125 42.75 C-16.66745071 35.12016743 -13.30034779 27.59291719 -9.92382812 20.06347656 C-9.11661089 18.26046386 -8.31559197 16.45467871 -7.515625 14.6484375 C-6.88914062 13.24464844 -6.88914062 13.24464844 -6.25 11.8125 C-5.90453125 11.03519531 -5.5590625 10.25789063 -5.203125 9.45703125 C-3.61527597 6.21431359 -1.80031813 3.13000516 0 0 Z " fill="#283164" transform="translate(247,108)"/>
<path d="M0 0 C1.24974609 -0.02900391 2.49949219 -0.05800781 3.78710938 -0.08789062 C5.58825195 -0.10045898 5.58825195 -0.10045898 7.42578125 -0.11328125 C8.52962158 -0.12786377 9.63346191 -0.14244629 10.77075195 -0.1574707 C14.3672719 0.4220305 15.4424727 1.50860284 17.6875 4.3125 C18.93115051 6.25687403 20.11663008 8.23934598 21.25 10.25 C22.11818359 11.77947266 22.11818359 11.77947266 23.00390625 13.33984375 C23.83728516 14.81130859 23.83728516 14.81130859 24.6875 16.3125 C25.25339844 17.20066406 25.81929687 18.08882812 26.40234375 19.00390625 C27.6875 21.3125 27.6875 21.3125 27.6875 24.3125 C28.6775 24.6425 29.6675 24.9725 30.6875 25.3125 C32.13276755 27.56490286 33.42953435 29.7722259 34.6875 32.125 C36.81857167 36.03864102 38.96105288 39.77651956 41.6875 43.3125 C42.48406833 44.67275289 43.2543447 46.04868497 44 47.4375 C46.33439785 51.7172294 48.81607342 55.88992504 51.35546875 60.05078125 C52.56348281 62.10192536 53.65288398 64.16971706 54.6875 66.3125 C55.3475 66.3125 56.0075 66.3125 56.6875 66.3125 C56.94144531 65.61253906 57.19539063 64.91257812 57.45703125 64.19140625 C58.82758155 60.98475364 60.51469174 58.19944748 62.375 55.25 C63.09359299 54.10097574 63.81101542 52.95121871 64.52734375 51.80078125 C64.88812012 51.22150879 65.24889648 50.64223633 65.62060547 50.04541016 C69.16611866 44.28658804 72.52290489 38.40811281 75.8125 32.5 C77.17826438 30.17820055 78.52486896 28.14011335 80.125 26 C82.70347707 22.48317807 84.53116741 18.73543623 86.421875 14.81640625 C87.98837134 11.71725762 89.78586467 8.81882291 91.671875 5.90625 C92.74691991 4.27993508 92.74691991 4.27993508 93.6875 2.3125 C94.3475 2.3125 95.0075 2.3125 95.6875 2.3125 C95.6875 1.6525 95.6875 0.9925 95.6875 0.3125 C104.5975 0.3125 113.5075 0.3125 122.6875 0.3125 C123.6875 3.3125 123.6875 3.3125 122.90234375 5.37109375 C122.48082031 6.15613281 122.05929688 6.94117187 121.625 7.75 C121.16609375 8.62269531 120.7071875 9.49539062 120.234375 10.39453125 C119.46867187 11.83892578 119.46867187 11.83892578 118.6875 13.3125 C117.57815251 15.51823532 116.47393056 17.72655637 115.375 19.9375 C114.47916667 21.72916667 113.58333333 23.52083333 112.6875 25.3125 C112.0275 25.3125 111.3675 25.3125 110.6875 25.3125 C110.52894531 25.88097656 110.37039062 26.44945312 110.20703125 27.03515625 C109.01472328 30.98097102 107.87347041 34.36117651 105.3125 37.625 C102.97541726 40.63181391 101.64278657 43.64507499 100.25 47.1875 C98.33045982 52.03176543 96.04683147 56.08724748 93.046875 60.33203125 C91.2932325 62.88690696 89.98415837 65.50307354 88.6875 68.3125 C88.0275 68.3125 87.3675 68.3125 86.6875 68.3125 C86.48125 69.281875 86.275 70.25125 86.0625 71.25 C84.89563241 75.35047133 82.75298448 78.39667389 80.328125 81.86328125 C78.03225236 85.29069111 76.1419208 88.89960097 74.19921875 92.53515625 C71.83491206 96.8788825 69.25992712 101.08997258 66.6875 105.3125 C66.3059375 106.21355469 65.924375 107.11460937 65.53125 108.04296875 C63.6875 110.3125 63.6875 110.3125 59.88671875 111.15234375 C48.3675661 111.72791852 48.3675661 111.72791852 44.48046875 108.453125 C42.95224384 105.80925381 41.83480687 103.14126974 40.6875 100.3125 C39.49588525 98.35168098 38.26615545 96.41353268 37 94.5 C33.42172313 88.93104956 30.07557867 83.25837412 26.8125 77.5 C24.2658533 73.02393487 21.669053 68.5948632 18.91015625 64.24609375 C17.41762444 61.88569999 15.95327736 59.50977562 14.5 57.125 C14.01144531 56.32707031 13.52289063 55.52914062 13.01953125 54.70703125 C11.6875 52.3125 11.6875 52.3125 10.68359375 49.796875 C9.65707747 47.23662264 8.40546941 45.0821772 6.9375 42.75 C4.75295694 39.173861 2.77584897 35.57798184 0.9375 31.8125 C-2.09127321 25.60995912 -5.4521801 19.61615359 -8.88574219 13.63085938 C-11.1667218 9.60142457 -13.03157186 5.7957485 -14.3125 1.3125 C-11.60094645 -1.39905355 -3.64787349 0.0279602 0 0 Z " fill="#2D3B94" transform="translate(61.3125,107.6875)"/>
<path d="M0 0 C1.34888732 0.00015905 2.69778075 0.00584927 4.04663086 0.01586914 C5.10991859 0.01799156 5.10991859 0.01799156 6.19468689 0.02015686 C8.46699173 0.02577096 10.73919936 0.03832576 13.01147461 0.05102539 C14.54858257 0.05603858 16.08569206 0.0606018 17.62280273 0.06469727 C21.39823103 0.07574497 25.17358632 0.09301898 28.94897461 0.11352539 C31.36642195 5.89310217 33.46680897 11.52605938 34.94897461 17.61352539 C36.06364658 22.08178369 37.34923052 26.32396935 39.19897461 30.55102539 C41.88966286 37.03216732 41.73101088 41.54965844 39.13647461 48.05102539 C38.76780273 48.90051758 38.39913086 49.75000977 38.01928711 50.62524414 C36.75617976 53.56173824 35.77762594 56.53889257 34.79663086 59.57836914 C33.74642478 62.71930806 32.59199311 65.81769747 31.44897461 68.92602539 C29.17582876 75.23726719 27.42241922 81.57286883 25.94897461 88.11352539 C24.46397461 87.61852539 24.46397461 87.61852539 22.94897461 87.11352539 C21.85131836 84.89086914 21.85131836 84.89086914 20.88647461 82.05102539 C20.54358398 81.04555664 20.20069336 80.04008789 19.84741211 79.00415039 C18.96727965 76.17241988 18.2462282 73.32834155 17.58569336 70.43774414 C16.06693629 64.89381495 13.93271832 59.50446251 11.94897461 54.11352539 C7.26209527 61.1438444 5.23836311 69.38138458 2.99975586 77.44555664 C1.42741045 82.93415269 -0.41073426 88.32490582 -2.24584961 93.73022461 C-3.96919966 98.83129896 -5.66271554 103.94240233 -7.36352539 109.05102539 C-8.58040039 112.70165039 -9.79727539 116.35227539 -11.05102539 120.11352539 C-21.28102539 120.11352539 -31.51102539 120.11352539 -42.05102539 120.11352539 C-40.6886657 112.6205471 -39.23204763 106.05395508 -36.73852539 98.98852539 C-34.49763618 92.46064185 -32.33756025 85.93330781 -30.42602539 79.30102539 C-30.02895618 77.9286104 -29.63182144 76.55621437 -29.23461914 75.18383789 C-29.04109863 74.51513672 -28.84757812 73.84643555 -28.64819336 73.1574707 C-26.10907619 64.46675569 -23.45978219 55.89386657 -19.94946289 47.53930664 C-18.91442081 44.74469302 -18.22978743 41.95218572 -17.55102539 39.05102539 C-16.49803815 34.57156074 -15.06374124 30.7256688 -13.08618164 26.59008789 C-11.7910361 23.49151327 -10.93536586 20.35263912 -10.05102539 17.11352539 C-5.41533446 0.2014988 -5.41533446 0.2014988 0 0 Z " fill="#302D36" transform="translate(414.051025390625,108.886474609375)"/>
<path d="M0 0 C2.62462244 -0.26697888 5.01065933 -0.34832984 7.6328125 -0.29296875 C8.76056595 -0.28660149 8.76056595 -0.28660149 9.91110229 -0.28010559 C12.31609685 -0.2632917 14.72025809 -0.22563624 17.125 -0.1875 C18.75389416 -0.17245659 20.38280144 -0.15876758 22.01171875 -0.14648438 C26.00813434 -0.11337954 30.00392582 -0.06158009 34 0 C32.45967366 6.42824252 30.89793531 12.74285357 28.5625 18.9375 C26.87862612 23.51017547 25.33117487 28.08064048 23.9375 32.75 C22.75907581 36.68126125 21.45830612 40.4640872 19.875 44.25 C18.61893722 47.2713402 17.68597357 50.10190247 17.0625 53.3125 C16.29032489 57.24294087 14.98209088 60.77964943 13.5 64.5 C11.76422575 68.8646649 10.47691805 72.96661032 9.58984375 77.5625 C8.5111586 82.02011279 6.80617842 86.27415318 5.2265625 90.57421875 C4.19641706 93.45140839 3.27901849 96.31393276 2.4375 99.25 C1.21246235 103.48194826 -0.33743826 107.51451085 -2.03515625 111.578125 C-3.13663255 114.34296429 -4.05885249 117.17655747 -5 120 C-16.22 120 -27.44 120 -39 120 C-38.10384189 115.51920947 -36.97390521 111.18936818 -35.6875 106.8125 C-35.35202148 105.6687793 -35.35202148 105.6687793 -35.00976562 104.50195312 C-33.8392549 100.58357676 -32.59542778 96.77041912 -31 93 C-28.29775403 86.59708786 -26.56048665 79.87561112 -24.64111328 73.20800781 C-21.85091023 63.59848902 -18.74964054 54.2007639 -15.0546875 44.89453125 C-13.89026536 41.69883938 -13.18735819 38.57182524 -12.55737305 35.23901367 C-11.98512631 32.94025117 -11.1654448 31.04437127 -10.13671875 28.9140625 C-7.80272864 23.79033585 -6.32431945 18.55419668 -4.875 13.125 C-4.3773222 11.27210728 -3.87491903 9.42047556 -3.3671875 7.5703125 C-3.15175293 6.76352051 -2.93631836 5.95672852 -2.71435547 5.12548828 C-2 3 -2 3 0 0 Z " fill="#302D36" transform="translate(490,109)"/>
<path d="M0 0 C12.21 0 24.42 0 37 0 C42.59808612 14.55502392 42.59808612 14.55502392 44.125 20.25 C45.19488621 24.17726522 46.33063818 27.99879417 47.75 31.8125 C50.6853345 40.73265539 48.36545685 47.77004143 45.2890625 56.3515625 C44.47434379 58.65746332 43.72072661 60.98668904 43.0546875 63.33984375 C41.47443697 68.82389838 39.49996485 74.16144695 37.56640625 79.52929688 C35.74802048 84.64497014 34.22595372 89.71000971 33 95 C32.01 94.67 31.02 94.34 30 94 C29.07951648 91.65139089 28.35547912 89.42149512 27.6875 87 C27.25957078 85.53556058 26.82847146 84.07204452 26.39453125 82.609375 C26.05736084 81.46952148 26.05736084 81.46952148 25.71337891 80.30664062 C24.55950117 76.57569031 23.21285439 72.91809611 21.875 69.25 C20.18505392 64.57458741 18.66493185 59.98111086 17.5625 55.125 C15.00201431 44.11036629 10.409916 33.55053064 6.25 23.0625 C3.33297492 15.54924133 1.57752829 7.88764145 0 0 Z " fill="#302E36" transform="translate(326,109)"/>
<path d="M0 0 C0.66 0 1.32 0 2 0 C2.15358623 9.63104685 2.30176794 19.26215698 2.4429636 28.89339352 C2.50869122 33.36509201 2.57631211 37.83674547 2.64819336 42.30834961 C2.71743575 46.62006021 2.7817918 50.93181808 2.84269524 55.24365425 C2.86685457 56.8923872 2.89280366 58.5410949 2.92053413 60.18977165 C2.95894047 62.49097615 2.9911014 64.79218659 3.02172852 67.09350586 C3.04171402 68.4058873 3.06169952 69.71826874 3.08229065 71.07041931 C3 74 3 74 2 75 C-0.3756852 75.0883967 -2.72208674 75.11530305 -5.09765625 75.09765625 C-6.16094398 75.09553383 -6.16094398 75.09553383 -7.24571228 75.09336853 C-9.51801712 75.08775443 -11.79022475 75.07519963 -14.0625 75.0625 C-15.59960796 75.05748681 -17.13671745 75.05292359 -18.67382812 75.04882812 C-22.44925642 75.03778042 -26.22461171 75.02050641 -30 75 C-30.17648219 71.52149069 -30.28156271 68.04415151 -30.375 64.5625 C-30.42527344 63.58861328 -30.47554687 62.61472656 -30.52734375 61.61132812 C-30.68139611 53.93438541 -28.62414853 49.97311071 -24 44 C-23.05973809 42.27346448 -22.15144443 40.52797346 -21.3125 38.75 C-19.68921105 35.38375658 -17.92310958 32.20518264 -16 29 C-15.71125 28.236875 -15.4225 27.47375 -15.125 26.6875 C-13.82309819 23.57740123 -12.10580271 20.93682119 -10.2890625 18.10546875 C-9.06742505 16.11012758 -8.01749557 14.10530587 -7 12 C-4.97802676 7.85742068 -2.84712142 3.64121652 0 0 Z " fill="#293892" transform="translate(184,154)"/>
<path d="M0 0 C3 1 3 1 4.5 3.58203125 C4.995 4.64808594 5.49 5.71414062 6 6.8125 C7.9918064 11.11583971 7.9918064 11.11583971 10.5625 15.07421875 C12.21787995 17.29188809 12.99868999 19.42041695 14 22 C15.24560256 24.45545934 16.50916573 26.88832866 17.8125 29.3125 C18.16997314 29.98039551 18.52744629 30.64829102 18.89575195 31.33642578 C21.07410408 35.37427479 23.35479866 39.3059247 25.83984375 43.1640625 C27.20619653 45.32630428 28.48681401 47.52592893 29.75 49.75 C30.15734375 50.46671875 30.5646875 51.1834375 30.984375 51.921875 C33.13333655 56.31898094 33.13517563 60.25087252 33.125 65.125 C33.12886719 66.98511719 33.12886719 66.98511719 33.1328125 68.8828125 C33 72 33 72 32 74 C21.44 74 10.88 74 0 74 C0 49.58 0 25.16 0 0 Z " fill="#2A3993" transform="translate(47,155)"/>
<path d="M0 0 C3 1 3 1 4.1875 2.6875 C5.19354897 5.55087014 5.06422746 7.98130922 5 11 C5.33 11.99 5.66 12.98 6 14 C5.51391769 14.38384354 5.02783539 14.76768707 4.52702332 15.16316223 C2.46670581 17.6414931 2.60424015 19.18941066 2.56762695 22.3894043 C2.54783279 23.49031906 2.52803864 24.59123383 2.50764465 25.72550964 C2.50125473 26.91308365 2.49486481 28.10065765 2.48828125 29.32421875 C2.46135445 31.14902519 2.46135445 31.14902519 2.43388367 33.01069641 C2.37962603 36.90292883 2.3458345 40.79503754 2.3125 44.6875 C2.27934068 47.32358498 2.24485234 49.95965361 2.20898438 52.59570312 C2.12138466 59.06382144 2.06144459 65.53136827 2 72 C10.91 71.67 19.82 71.34 29 71 C29.33 71.99 29.66 72.98 30 74 C20.1 74 10.2 74 0 74 C0 49.58 0 25.16 0 0 Z " fill="#2A3581" transform="translate(47,155)"/>
<path d="M0 0 C0.66 0 1.32 0 2 0 C2 22.11 2 44.22 2 67 C1.67 67 1.34 67 1 67 C0.67 49.84 0.34 32.68 0 15 C-0.66 15.66 -1.32 16.32 -2 17 C-2.66 16.67 -3.32 16.34 -4 16 C-3.67 12.04 -3.34 8.08 -3 4 C-2.01 3.67 -1.02 3.34 0 3 C0 2.01 0 1.02 0 0 Z " fill="#273489" transform="translate(183,158)"/>
<path d="M0 0 C2.64 0.33 5.28 0.66 8 1 C7.85930804 3.12534659 7.71229079 5.25027529 7.5625 7.375 C7.48128906 8.55835938 7.40007812 9.74171875 7.31640625 10.9609375 C7 14 7 14 6 16 C5.01 15.67 4.02 15.34 3 15 C0.54209963 9.72006588 -0.36134972 5.78159553 0 0 Z " fill="#2B2830" transform="translate(353,188)"/>
<path d="M0 0 C0.66 0 1.32 0 2 0 C2 23.43 2 46.86 2 71 C1.67 71 1.34 71 1 71 C1 48.89 1 26.78 1 4 C0.34 5.98 -0.32 7.96 -1 10 C-1.33 9.34 -1.66 8.68 -2 8 C-2.66 7.67 -3.32 7.34 -4 7 C-2.68 4.69 -1.36 2.38 0 0 Z " fill="#656EA5" transform="translate(184,154)"/>
<path d="M0 0 C0.99 0.33 1.98 0.66 3 1 C4.1875 4.0625 4.1875 4.0625 5 7 C4.01 6.67 3.02 6.34 2 6 C1.67 28.44 1.34 50.88 1 74 C0.67 74 0.34 74 0 74 C0 49.58 0 25.16 0 0 Z " fill="#9B9EC6" transform="translate(47,155)"/>
<path d="M0 0 C0 0.99 0 1.98 0 3 C-9.9 3 -19.8 3 -30 3 C-29.67 2.34 -29.34 1.68 -29 1 C-24.54168888 0.83273548 -20.08334759 0.66628917 -15.625 0.5 C-14.35398438 0.45230469 -13.08296875 0.40460938 -11.7734375 0.35546875 C-9.95585937 0.28779297 -9.95585937 0.28779297 -8.1015625 0.21875 C-6.42054443 0.1559082 -6.42054443 0.1559082 -4.70556641 0.09179688 C-3.13764805 0.03859914 -1.56882057 0 0 0 Z " fill="#2F377B" transform="translate(186,226)"/>
<path d="M0 0 C0.66 0.99 1.32 1.98 2 3 C2.66 2.67 3.32 2.34 4 2 C2.63055898 4.94956528 1.12169591 7.52468811 -1 10 C-1.66 10 -2.32 10 -3 10 C-2.7525 10.721875 -2.505 11.44375 -2.25 12.1875 C-2 15 -2 15 -3.8125 17.8125 C-4.534375 18.534375 -5.25625 19.25625 -6 20 C-6.66 20 -7.32 20 -8 20 C-6.34998276 12.90492587 -3.13106483 6.54766701 0 0 Z " fill="#4D5278" transform="translate(208,195)"/>
<path d="M0 0 C0.64106689 0.1429248 1.28213379 0.28584961 1.94262695 0.43310547 C9.42984879 1.96465866 16.56280365 2.2411348 24.1875 2.125 C25.33025391 2.11597656 26.47300781 2.10695312 27.65039062 2.09765625 C30.4338231 2.07436393 33.21679229 2.04165999 36 2 C35.67 2.66 35.34 3.32 35 4 C30.47922138 4.05834421 25.95854047 4.09371252 21.4375 4.125 C19.52227539 4.15013672 19.52227539 4.15013672 17.56835938 4.17578125 C11.34477741 4.20811155 5.85046072 4.23461206 0 2 C0 1.34 0 0.68 0 0 Z " fill="#8D846D" transform="translate(554,200)"/>
<path d="M0 0 C0.99 2.97 1.98 5.94 3 9 C2.01 9.33 1.02 9.66 0 10 C0 10.66 0 11.32 0 12 C-0.99 11.67 -1.98 11.34 -3 11 C-3 10.01 -3 9.02 -3 8 C-3.66 7.67 -4.32 7.34 -5 7 C-4.01 5.68 -3.02 4.36 -2 3 C-2.66 2.34 -3.32 1.68 -4 1 C-2 0 -2 0 0 0 Z " fill="#434047" transform="translate(445,115)"/>
<path d="M0 0 C2.91488977 2.6234008 4.88503898 5.71816394 7 9 C6.67 9.66 6.34 10.32 6 11 C5.01 10.01 4.02 9.02 3 8 C2.54625 8.495 2.0925 8.99 1.625 9.5 C0 11 0 11 -2 11 C-2 12.65 -2 14.3 -2 16 C-2.33 16 -2.66 16 -3 16 C-3.25 9.375 -3.25 9.375 -1 6 C-0.34 6 0.32 6 1 6 C0.01 4.68 -0.98 3.36 -2 2 C-1.34 2 -0.68 2 0 2 C0 1.34 0 0.68 0 0 Z " fill="#48559F" transform="translate(52,163)"/>
<path d="M0 0 C0.33 0 0.66 0 1 0 C1.66 3.3 2.32 6.6 3 10 C1.68 10.33 0.36 10.66 -1 11 C-1.99 12.485 -1.99 12.485 -3 14 C-3.66 14 -4.32 14 -5 14 C-5.33 14.66 -5.66 15.32 -6 16 C-5.37183502 12.05050296 -4.1354471 8.80107972 -2.4375 5.1875 C-1.98246094 4.21167969 -1.52742187 3.23585937 -1.05859375 2.23046875 C-0.70925781 1.49441406 -0.35992187 0.75835937 0 0 Z " fill="#4F5D81" transform="translate(235,133)"/>
<path d="M0 0 C1 2 2 4 3 6 C5.34937742 6.9583369 7.66218055 7.81785446 10.0625 8.625 C10.72572266 8.85445312 11.38894531 9.08390625 12.07226562 9.3203125 C13.71259669 9.88675776 15.35602157 10.44422923 17 11 C17 11.33 17 11.66 17 12 C4.27983539 11.1399177 4.27983539 11.1399177 0 9 C-1.5924178 5.92132558 -0.81627167 3.26508669 0 0 Z " fill="#605242" transform="translate(562,142)"/>
<path d="M0 0 C8.91 0 17.82 0 27 0 C28 3 28 3 26.5625 6.1875 C25.7890625 7.5796875 25.7890625 7.5796875 25 9 C24 6 24 6 24 2 C16.08 1.67 8.16 1.34 0 1 C0 0.67 0 0.34 0 0 Z " fill="#7174B5" transform="translate(157,108)"/>
<path d="M0 0 C2.105184 3.157776 2.25289344 3.95397134 2.1875 7.5625 C2.18105469 8.34753906 2.17460937 9.13257813 2.16796875 9.94140625 C2 12 2 12 1 14 C0.34 14 -0.32 14 -1 14 C-1 13.34 -1 12.68 -1 12 C-1.66 12 -2.32 12 -3 12 C-2.88541307 10.56163249 -2.75790884 9.12429034 -2.625 7.6875 C-2.55539062 6.88699219 -2.48578125 6.08648437 -2.4140625 5.26171875 C-2 3 -2 3 0 0 Z " fill="#525055" transform="translate(373,142)"/>
<path d="M0 0 C0.33 0 0.66 0 1 0 C1 3.3 1 6.6 1 10 C-0.65 10.33 -2.3 10.66 -4 11 C-4 12.32 -4 13.64 -4 15 C-4.99 15 -5.98 15 -7 15 C-5.63408831 11.45756548 -4.09068516 8.07372071 -2.375 4.6875 C-1.70597656 3.36298828 -1.70597656 3.36298828 -1.0234375 2.01171875 C-0.68570313 1.34785156 -0.34796875 0.68398437 0 0 Z " fill="#555D9E" transform="translate(179,162)"/>
<path d="M0 0 C0.66 0 1.32 0 2 0 C5.24599784 4.15487723 5.56826373 7.90551202 6 13 C6.99 13.33 7.98 13.66 9 14 C9 15.65 9 17.3 9 19 C5.9010716 15.45836754 3.82337151 11.89256431 1.83203125 7.671875 C1.11506873 6.00906803 1.11506873 6.00906803 0 5 C-0.04063832 3.33382885 -0.042721 1.66611905 0 0 Z " fill="#666DAD" transform="translate(62,135)"/>
<path d="M0 0 C0.53109375 0.31710938 1.0621875 0.63421875 1.609375 0.9609375 C4.54535848 2.2370349 7.06174329 2.41707021 10.25 2.625 C11.32765625 2.69976562 12.4053125 2.77453125 13.515625 2.8515625 C14.33546875 2.90054688 15.1553125 2.94953125 16 3 C16 2.34 16 1.68 16 1 C16.66 1 17.32 1 18 1 C17.67 2.32 17.34 3.64 17 5 C11.39 5 5.78 5 0 5 C0 3.35 0 1.7 0 0 Z " fill="#575E9D" transform="translate(108,213)"/>
<path d="M0 0 C4.50802601 1.25805377 7.4912812 2.90407165 11 6 C8.1875 6.6875 8.1875 6.6875 5 7 C3.25 5.5625 3.25 5.5625 2 4 C1.34 4 0.68 4 0 4 C-0.33 4.99 -0.66 5.98 -1 7 C-1.66 6.67 -2.32 6.34 -3 6 C-2.01 4.02 -1.02 2.04 0 0 Z " fill="#615041" transform="translate(537,192)"/>
<path d="M0 0 C0.99 0 1.98 0 3 0 C3.14285714 7.42857143 3.14285714 7.42857143 2 11 C1.01 10.67 0.02 10.34 -1 10 C-2.38125018 7.23749964 -2.19079306 5.05268901 -2 2 C-1.34 1.34 -0.68 0.68 0 0 Z " fill="#27232B" transform="translate(438,186)"/>
<path d="M0 0 C0.99 0.33 1.98 0.66 3 1 C2.67 2.32 2.34 3.64 2 5 C3.32 4.67 4.64 4.34 6 4 C7.125 10.75 7.125 10.75 6 13 C3 12 3 12 2.05078125 10.29296875 C1.80714844 9.59816406 1.56351562 8.90335938 1.3125 8.1875 C1.06113281 7.50042969 0.80976563 6.81335938 0.55078125 6.10546875 C0 4 0 4 0 0 Z " fill="#626267" transform="translate(353,191)"/>
<path d="M0 0 C2.57798841 0.36363205 3.69164073 0.59533633 5.30078125 2.70703125 C5.63464844 3.40183594 5.96851563 4.09664062 6.3125 4.8125 C6.65925781 5.49957031 7.00601562 6.18664062 7.36328125 6.89453125 C8.10314333 9.34106905 7.82973374 10.61786119 7 13 C6.34 13 5.68 13 5 13 C5.33 11.35 5.66 9.7 6 8 C5.21625 7.87625 4.4325 7.7525 3.625 7.625 C1 7 1 7 -1 5 C-0.34 5 0.32 5 1 5 C0.67 3.35 0.34 1.7 0 0 Z " fill="#52577C" transform="translate(315,192)"/>
<path d="M0 0 C0.66 0.33 1.32 0.66 2 1 C1.67 1.66 1.34 2.32 1 3 C1.66 3.33 2.32 3.66 3 4 C2.67 4.66 2.34 5.32 2 6 C1.34 6 0.68 6 0 6 C-0.433125 7.2065625 -0.433125 7.2065625 -0.875 8.4375 C-2 11 -2 11 -4 12 C-4.66 11.67 -5.32 11.34 -6 11 C-5.34 9.35 -4.68 7.7 -4 6 C-3.34 6 -2.68 6 -2 6 C-1.855625 5.38125 -1.71125 4.7625 -1.5625 4.125 C-1 2 -1 2 0 0 Z " fill="#584935" transform="translate(537,119)"/>
<path d="M0 0 C0.33 0.99 0.66 1.98 1 3 C0.01 4.485 0.01 4.485 -1 6 C-0.979375 6.825 -0.95875 7.65 -0.9375 8.5 C-1 11 -1 11 -2.3125 12.8125 C-4 14 -4 14 -7 14 C-7 14.99 -7 15.98 -7 17 C-7.66 17 -8.32 17 -9 17 C-6.78458833 10.90761792 -3.34747219 5.52332912 0 0 Z " fill="#6E75AF" transform="translate(142,132)"/>
<path d="M0 0 C-0.33 1.98 -0.66 3.96 -1 6 C-1.66 6 -2.32 6 -3 6 C-3.28875 7.134375 -3.5775 8.26875 -3.875 9.4375 C-4.24625 10.613125 -4.6175 11.78875 -5 13 C-5.99 13.495 -5.99 13.495 -7 14 C-6.67 12.948125 -6.34 11.89625 -6 10.8125 C-4.8664484 7.20322464 -4.8664484 7.20322464 -5.0625 4.1875 C-5.041875 3.465625 -5.02125 2.74375 -5 2 C-2 0 -2 0 0 0 Z " fill="#505B9D" transform="translate(151,170)"/>
<path d="M0 0 C1.1700097 3.91736581 0.69584017 6.97959015 0 11 C-0.99 11.33 -1.98 11.66 -3 12 C-3.99 12.495 -3.99 12.495 -5 13 C-4.39254603 8.14036821 -2.27241033 4.2594482 0 0 Z " fill="#51587C" transform="translate(219,170)"/>
<path d="M0 0 C4.29 0 8.58 0 13 0 C13.33 1.65 13.66 3.3 14 5 C13.01 6.485 13.01 6.485 12 8 C11.525625 7.195625 11.05125 6.39125 10.5625 5.5625 C9.23099846 3.15246512 9.23099846 3.15246512 8 2 C6.65252916 1.76924918 5.29622435 1.58846937 3.9375 1.4375 C2.638125 1.293125 1.33875 1.14875 0 1 C0 0.67 0 0.34 0 0 Z " fill="#273288" transform="translate(168,109)"/>
<path d="M0 0 C1.32 0 2.64 0 4 0 C3.49287967 3.71888239 2.88391785 6.73454239 1 10 C0.67 8.35 0.34 6.7 0 5 C-0.66 5 -1.32 5 -2 5 C-1.34 3.35 -0.68 1.7 0 0 Z " fill="#4D4B50" transform="translate(403,214)"/>
<path d="M0 0 C1.9453125 0.2421875 1.9453125 0.2421875 4.125 0.875 C4.84945312 1.07867187 5.57390625 1.28234375 6.3203125 1.4921875 C6.87460937 1.65976563 7.42890625 1.82734375 8 2 C8 2.66 8 3.32 8 4 C7.34 4 6.68 4 6 4 C5.67 4.66 5.34 5.32 5 6 C1.73045798 5.43628586 0.17424117 4.50037734 -2 2 C-1.34 1.34 -0.68 0.68 0 0 Z " fill="#372308" transform="translate(569,176)"/>
<path d="M0 0 C-0.33 0.99 -0.66 1.98 -1 3 C-1.34227417 4.33106622 -1.67751743 5.66400079 -2 7 C-2.99 6.67 -3.98 6.34 -5 6 C-6.1875 2.9375 -6.1875 2.9375 -7 0 C-3.98968256 -0.93423645 -3.13349732 -1.04449911 0 0 Z " fill="#394594" transform="translate(55,111)"/>
<path d="M0 0 C0.66 0 1.32 0 2 0 C2 4.62 2 9.24 2 14 C1.01 14 0.02 14 -1 14 C-0.67 9.38 -0.34 4.76 0 0 Z " fill="#888DB0" transform="translate(78,213)"/>
<path d="M0 0 C2.97 0.495 2.97 0.495 6 1 C5.34 2.65 4.68 4.3 4 6 C2.68 6 1.36 6 0 6 C0 5.34 0 4.68 0 4 C-0.66 3.67 -1.32 3.34 -2 3 C-1.34 2.01 -0.68 1.02 0 0 Z " fill="#382408" transform="translate(576,154)"/>
<path d="M0 0 C0 1.98 0 3.96 0 6 C-3.79588866 5.45773019 -5.47211993 3.79872437 -8 1 C-5.23735711 0.40267181 -2.83967231 0 0 0 Z " fill="#594935" transform="translate(598,187)"/>
<path d="M0 0 C1.65 0.33 3.3 0.66 5 1 C5 2.32 5 3.64 5 5 C5.66 5 6.32 5 7 5 C6.67 5.99 6.34 6.98 6 8 C3.69 6.35 1.38 4.7 -1 3 C-0.67 2.01 -0.34 1.02 0 0 Z " fill="#50422F" transform="translate(538,166)"/>
<path d="M0 0 C0 0.99 0 1.98 0 3 C-0.66 3 -1.32 3 -2 3 C-2.33 3.99 -2.66 4.98 -3 6 C-3.66 6 -4.32 6 -5 6 C-5 6.66 -5 7.32 -5 8 C-5.66 8 -6.32 8 -7 8 C-6.34 5.69 -5.68 3.38 -5 1 C-3.35 0.67 -1.7 0.34 0 0 Z " fill="#5D4E39" transform="translate(623,212)"/>
<path d="M0 0 C0.33 0 0.66 0 1 0 C1.6875 2.8125 1.6875 2.8125 2 6 C0.5625 7.6875 0.5625 7.6875 -1 9 C-1 9.99 -1 10.98 -1 12 C-1.99 12 -2.98 12 -4 12 C-3.33501617 7.61110675 -1.81242323 4.0188515 0 0 Z " fill="#655847" transform="translate(533,199)"/>
<path d="M0 0 C0.66 0.33 1.32 0.66 2 1 C1.25 7.75 1.25 7.75 -1 10 C-3.125 9.625 -3.125 9.625 -5 9 C-5 8.34 -5 7.68 -5 7 C-3.35 6.34 -1.7 5.68 0 5 C0 3.35 0 1.7 0 0 Z " fill="#534532" transform="translate(595,194)"/>
<path d="M0 0 C3.63 0.66 7.26 1.32 11 2 C11 2.99 11 3.98 11 5 C10.67 4.34 10.34 3.68 10 3 C8.906875 3.226875 7.81375 3.45375 6.6875 3.6875 C3 4 3 4 1.0625 2.625 C0 1 0 1 0 0 Z " fill="#81755E" transform="translate(587,155)"/>
<path d="M0 0 C2.475 0.99 2.475 0.99 5 2 C5 2.66 5 3.32 5 4 C4.34 4 3.68 4 3 4 C3 4.66 3 5.32 3 6 C1.02 6 -0.96 6 -3 6 C-2.01 5.67 -1.02 5.34 0 5 C-0.2784375 4.0409375 -0.2784375 4.0409375 -0.5625 3.0625 C-0.706875 2.381875 -0.85125 1.70125 -1 1 C-0.67 0.67 -0.34 0.34 0 0 Z " fill="#25348F" transform="translate(121,210)"/>
<path d="M0 0 C1.2065625 0.0309375 1.2065625 0.0309375 2.4375 0.0625 C1.7775 3.0325 1.1175 6.0025 0.4375 9.0625 C0.1075 9.0625 -0.2225 9.0625 -0.5625 9.0625 C-0.5625 7.4125 -0.5625 5.7625 -0.5625 4.0625 C-1.2225 4.0625 -1.8825 4.0625 -2.5625 4.0625 C-2.8925 3.0725 -3.2225 2.0825 -3.5625 1.0625 C-2.5625 0.0625 -2.5625 0.0625 0 0 Z " fill="#413F45" transform="translate(361.5625,184.9375)"/>
<path d="M0 0 C3.63 0.66 7.26 1.32 11 2 C11 2.66 11 3.32 11 4 C7.7 3.67 4.4 3.34 1 3 C0.67 2.01 0.34 1.02 0 0 Z " fill="#6B5F52" transform="translate(554,200)"/>
<path d="M0 0 C1.07156762 4.28627048 1.0365854 4.66075382 -0.9375 8.25 C-1.31777344 8.95640625 -1.69804687 9.6628125 -2.08984375 10.390625 C-2.39019531 10.92171875 -2.69054687 11.4528125 -3 12 C-3.99 11.67 -4.98 11.34 -6 11 C-4.02 7.37 -2.04 3.74 0 0 Z " fill="#787EB0" transform="translate(161,195)"/>
<path d="M0 0 C0.99 0 1.98 0 3 0 C2 4 2 4 1 8 C-0.32 8 -1.64 8 -3 8 C-2.67 6.35 -2.34 4.7 -2 3 C-1.01 2.67 -0.02 2.34 1 2 C0.67 1.34 0.34 0.68 0 0 Z " fill="#424045" transform="translate(493,195)"/>
<path d="M0 0 C1.9375 0.6875 1.9375 0.6875 4 2 C4.75 4.625 4.75 4.625 5 7 C4.01 7 3.02 7 2 7 C0 5 0 5 -0.125 2.375 C-0.08375 1.59125 -0.0425 0.8075 0 0 Z " fill="#2A272F" transform="translate(345,161)"/>
<path d="M0 0 C1.2077558 3.62326739 0.54311128 4.64146369 -1 8 C-1.33 7.01 -1.66 6.02 -2 5 C-2.66 5 -3.32 5 -4 5 C-4.33 3.68 -4.66 2.36 -5 1 C-3.35 0.67 -1.7 0.34 0 0 Z " fill="#57545A" transform="translate(424,160)"/>
<path d="M0 0 C2.89932357 2.39509338 3.50168276 4.31245243 4 8 C2.02 8.99 2.02 8.99 0 10 C0.33 8.35 0.66 6.7 1 5 C0.34 4.67 -0.32 4.34 -1 4 C-0.67 2.68 -0.34 1.36 0 0 Z " fill="#505580" transform="translate(290,130)"/>
<path d="M0 0 C2.87255066 2.42195448 3.70838919 4.59742703 4.6875 8.1875 C4.93886719 9.08855469 5.19023437 9.98960938 5.44921875 10.91796875 C5.63097656 11.60503906 5.81273437 12.29210937 6 13 C2.9219997 10.22979973 1.19517992 7.98393307 0 4 C0 2.68 0 1.36 0 0 Z " fill="#6B7390" transform="translate(283,114)"/>
<path d="M0 0 C2.31 0.66 4.62 1.32 7 2 C7 2.66 7 3.32 7 4 C6.34 4.66 5.68 5.32 5 6 C4.67 6.66 4.34 7.32 4 8 C2.68 5.36 1.36 2.72 0 0 Z " fill="#50599F" transform="translate(93,192)"/>
<path d="M0 0 C1.32 0.33 2.64 0.66 4 1 C4.33 1.99 4.66 2.98 5 4 C4.01 4.33 3.02 4.66 2 5 C1.67 6.65 1.34 8.3 1 10 C0.67 10 0.34 10 0 10 C0 6.7 0 3.4 0 0 Z " fill="#4D4B51" transform="translate(330,116)"/>
<path d="M0 0 C0 0.66 0 1.32 0 2 C-5.94 1.67 -11.88 1.34 -18 1 C-18 0.67 -18 0.34 -18 0 C-15.3753399 -0.19430855 -12.75053235 -0.38073238 -10.125 -0.5625 C-9.00544922 -0.64661133 -9.00544922 -0.64661133 -7.86328125 -0.73242188 C-2.2265625 -1.11328125 -2.2265625 -1.11328125 0 0 Z " fill="#2F200D" transform="translate(586,230)"/>
<path d="M0 0 C1.56633048 2.48770135 2.04100928 3.65552204 1.6875 6.625 C1 9 1 9 0 11 C-0.66 11 -1.32 11 -2 11 C-2.33 11.66 -2.66 12.32 -3 13 C-2.68817931 11.58318366 -2.37551263 10.16655349 -2.0625 8.75 C-1.88847656 7.96109375 -1.71445312 7.1721875 -1.53515625 6.359375 C-1.052444 4.23121297 -0.53836822 2.11467158 0 0 Z " fill="#5B585E" transform="translate(382,193)"/>
<path d="M0 0 C3 2 3 2 3.51171875 4.3828125 C3.56972656 5.28773438 3.62773437 6.19265625 3.6875 7.125 C3.75324219 8.03507813 3.81898438 8.94515625 3.88671875 9.8828125 C3.92410156 10.58148438 3.96148437 11.28015625 4 12 C1.21366885 7.82050327 0 5.06624674 0 0 Z " fill="#827F85" transform="translate(345,166)"/>
<path d="M0 0 C0.66 0 1.32 0 2 0 C5 4.38461538 5 4.38461538 5 7 C1.125 6.125 1.125 6.125 0 5 C-0.04063832 3.33382885 -0.042721 1.66611905 0 0 Z " fill="#505897" transform="translate(62,135)"/>
<path d="M0 0 C0.66 0.99 1.32 1.98 2 3 C1.34 3.66 0.68 4.32 0 5 C-0.71927295 7.31765729 -1.3909893 9.65095874 -2 12 C-2.66 12 -3.32 12 -4 12 C-3.52494322 10.18641846 -3.04483958 8.37415821 -2.5625 6.5625 C-2.29566406 5.55316406 -2.02882813 4.54382813 -1.75390625 3.50390625 C-1 1 -1 1 0 0 Z " fill="#6D6B74" transform="translate(489,111)"/>
<path d="M0 0 C1.88391785 3.26545761 2.49287967 6.28111761 3 10 C2.67 9.34 2.34 8.68 2 8 C0.02 8.33 -1.96 8.66 -4 9 C-3.01 8.01 -2.02 7.02 -1 6 C-0.34 6.33 0.32 6.66 1 7 C0.67 4.69 0.34 2.38 0 0 Z " fill="#53567F" transform="translate(330,219)"/>
<path d="M0 0 C0.99 0.99 1.98 1.98 3 3 C1.68799596 4.35432675 0.35368596 5.68733482 -1 7 C-1.33 7 -1.66 7 -2 7 C-2.125 4.625 -2.125 4.625 -2 2 C-1.34 1.34 -0.68 0.68 0 0 Z " fill="#534322" transform="translate(613,217)"/>
<path d="M0 0 C1.32 0.66 2.64 1.32 4 2 C2.71937515 3.7074998 1.38232443 5.37373596 0 7 C-0.66 7 -1.32 7 -2 7 C-1.34 4.69 -0.68 2.38 0 0 Z " fill="#585C80" transform="translate(202,208)"/>
<path d="M0 0 C1.32 0.33 2.64 0.66 4 1 C3.67 3.64 3.34 6.28 3 9 C2.67 9 2.34 9 2 9 C1.34 6.03 0.68 3.06 0 0 Z " fill="#565C80" transform="translate(284,195)"/>
<path d="M0 0 C1.32 0.99 2.64 1.98 4 3 C3.67 4.32 3.34 5.64 3 7 C2.01 6.67 1.02 6.34 0 6 C-0.75 4.0625 -0.75 4.0625 -1 2 C-0.67 1.34 -0.34 0.68 0 0 Z " fill="#757475" transform="translate(437,190)"/>
<path d="M0 0 C0.66 0 1.32 0 2 0 C1.01 2.97 0.02 5.94 -1 9 C-1.33 9 -1.66 9 -2 9 C-2.125 5.625 -2.125 5.625 -2 2 C-1.34 1.34 -0.68 0.68 0 0 Z " fill="#6A718E" transform="translate(255,161)"/>
<path d="M0 0 C0.99 0.66 1.98 1.32 3 2 C1.625 4.5 1.625 4.5 0 7 C-0.66 7 -1.32 7 -2 7 C-1.125 1.125 -1.125 1.125 0 0 Z " fill="#5D66A0" transform="translate(157,156)"/>
<path d="M0 0 C1 2 2 4 3 6 C3.99 6.66 4.98 7.32 6 8 C4.02 8.33 2.04 8.66 0 9 C-1.10844919 5.67465243 -0.84454356 3.37817425 0 0 Z " fill="#786A59" transform="translate(562,142)"/>
<path d="M0 0 C0.99 0 1.98 0 3 0 C3 2.31 3 4.62 3 7 C1.68 6.67 0.36 6.34 -1 6 C-0.67 4.02 -0.34 2.04 0 0 Z " fill="#362309" transform="translate(620,116)"/>
<path d="M0 0 C1.32 0 2.64 0 4 0 C3.40138258 2.35171131 2.73075648 4.6859378 2 7 C1.01 7.495 1.01 7.495 0 8 C0 5.36 0 2.72 0 0 Z " fill="#686EA1" transform="translate(181,109)"/>
<path d="M0 0 C0.33 0.66 0.66 1.32 1 2 C2.64363134 2.72159424 4.31050386 3.39351421 6 4 C6 4.66 6 5.32 6 6 C0.25 4.25 0.25 4.25 -2 2 C-1.34 2 -0.68 2 0 2 C0 1.34 0 0.68 0 0 Z " fill="#544936" transform="translate(529,217)"/>
<path d="M0 0 C0.28875 0.639375 0.5775 1.27875 0.875 1.9375 C1.82823451 4.15206079 1.82823451 4.15206079 4 5 C4 5.66 4 6.32 4 7 C3.34 7 2.68 7 2 7 C1.67 7.99 1.34 8.98 1 10 C-1.125 3.375 -1.125 3.375 0 0 Z " fill="#676E8F" transform="translate(280,181)"/>
<path d="M0 0 C0 0.99 0 1.98 0 3 C-3.3 2.34 -6.6 1.68 -10 1 C-5.64467851 -1.17766075 -4.53374042 -1.03039555 0 0 Z " fill="#928374" transform="translate(580,182)"/>
<path d="M0 0 C0.99 0.33 1.98 0.66 3 1 C4.1875 4.0625 4.1875 4.0625 5 7 C2.525 6.01 2.525 6.01 0 5 C0 3.35 0 1.7 0 0 Z " fill="#777EA3" transform="translate(47,155)"/>
<path d="M0 0 C0.99 0 1.98 0 3 0 C3 1.98 3 3.96 3 6 C3.66 6.33 4.32 6.66 5 7 C4.01 8.485 4.01 8.485 3 10 C2.01 6.7 1.02 3.4 0 0 Z " fill="#71758E" transform="translate(268,155)"/>
<path d="M0 0 C0.28875 0.598125 0.5775 1.19625 0.875 1.8125 C2.04742026 4.19327792 2.04742026 4.19327792 4 7 C4 7.99 4 8.98 4 10 C3.01 9.67 2.02 9.34 1 9 C1 7.68 1 6.36 1 5 C0.34 4.67 -0.32 4.34 -1 4 C-0.67 2.68 -0.34 1.36 0 0 Z " fill="#606586" transform="translate(297,144)"/>
<path d="M0 0 C1.67542976 0.28604898 3.34385343 0.61781233 5 1 C3.71034824 2.37562854 2.37310707 3.70766393 1 5 C0.34 5 -0.32 5 -1 5 C-1.33 5.66 -1.66 6.32 -2 7 C-1.125 1.125 -1.125 1.125 0 0 Z " fill="#605140" transform="translate(565,134)"/>
<path d="M0 0 C2.50298434 2.93828597 3.46930939 5.17902761 4 9 C3.34 9 2.68 9 2 9 C-0.29013653 5.5647952 -0.17842973 4.014669 0 0 Z " fill="#4F5276" transform="translate(324,207)"/>
<path d="M0 0 C2 2 2 2 3 5 C3.66 5 4.32 5 5 5 C4.34 6.98 3.68 8.96 3 11 C0.87953208 7.46588679 0.46800711 4.05606165 0 0 Z " fill="#58565B" transform="translate(350,180)"/>
<path d="M0 0 C0.99 0 1.98 0 3 0 C3 0.66 3 1.32 3 2 C3.66 2 4.32 2 5 2 C5.33 3.65 5.66 5.3 6 7 C1.125 3.375 1.125 3.375 0 0 Z " fill="#645848" transform="translate(531,161)"/>
<path d="M0 0 C1.25541557 3.76624671 0.37061958 5.37188934 -1 9 C-1.33 8.34 -1.66 7.68 -2 7 C-2.66 6.67 -3.32 6.34 -4 6 C-2.68 4.02 -1.36 2.04 0 0 Z " fill="#505798" transform="translate(184,155)"/>
<path d="M0 0 C1.5 1.3125 1.5 1.3125 3 3 C3 3.99 3 4.98 3 6 C1.35 6 -0.3 6 -2 6 C-1.34 4.02 -0.68 2.04 0 0 Z " fill="#323A68" transform="translate(293,138)"/>
<path d="M0 0 C2 3 2 3 1.625 6.1875 C1.41875 7.115625 1.2125 8.04375 1 9 C-0.625 7.3125 -0.625 7.3125 -2 5 C-1.1875 2.25 -1.1875 2.25 0 0 Z " fill="#5C4C3D" transform="translate(629,190)"/>
<path d="M0 0 C0.33 0.66 0.66 1.32 1 2 C1.99 2 2.98 2 4 2 C4.33 2.99 4.66 3.98 5 5 C2.07120629 4.37240135 -0.36095629 3.41377341 -3 2 C-2.01 1.34 -1.02 0.68 0 0 Z " fill="#564738" transform="translate(582,182)"/>
<path d="M0 0 C1 2 1 2 0.25 5.5625 C-0.1625 6.696875 -0.575 7.83125 -1 9 C-1.99 9.33 -2.98 9.66 -4 10 C-3.52449439 8.51965236 -3.04448784 7.04074979 -2.5625 5.5625 C-2.29566406 4.73878906 -2.02882812 3.91507813 -1.75390625 3.06640625 C-1 1 -1 1 0 0 Z " fill="#777B9A" transform="translate(225,156)"/>
<path d="M0 0 C0.66 0 1.32 0 2 0 C1.45276317 3.37462715 0.9451 5.08235 -1 8 C-1.625 5.6875 -1.625 5.6875 -2 3 C-1.34 2.01 -0.68 1.02 0 0 Z " fill="#575B7F" transform="translate(261,145)"/>
<path d="M0 0 C0.33 1.32 0.66 2.64 1 4 C0.01 4.33 -0.98 4.66 -2 5 C-2.99 4.34 -3.98 3.68 -5 3 C-2.25 0 -2.25 0 0 0 Z " fill="#29252D" transform="translate(454,145)"/>
<path d="M0 0 C0.99 0.33 1.98 0.66 3 1 C2.01 1.495 2.01 1.495 1 2 C0.67 2.66 0.34 3.32 0 4 C-3.0625 4.625 -3.0625 4.625 -6 5 C-2.25 1.125 -2.25 1.125 0 0 Z " fill="#72624B" transform="translate(549,111)"/>
</svg>
